<svg width="732" height="732" viewBox="0 0 732 732" fill="none" xmlns="http://www.w3.org/2000/svg">
<line x1="366.495" y1="2.18557e-08" x2="366.495" y2="50" stroke="#1F2937"/>
<line x1="732" y1="366.495" x2="682" y2="366.495" stroke="#1F2937"/>
<line x1="366.495" y1="682" x2="366.495" y2="732" stroke="#1F2937"/>
<line x1="328.235" y1="1.95273" x2="330.848" y2="26.8158" stroke="#1F2937"/>
<line x1="402.136" y1="705.08" x2="404.75" y2="729.943" stroke="#1F2937"/>
<line x1="290.388" y1="7.89403" x2="295.586" y2="32.3477" stroke="#1F2937"/>
<line x1="437.382" y1="699.444" x2="442.58" y2="723.898" stroke="#1F2937"/>
<line x1="253.37" y1="17.7588" x2="261.096" y2="41.5353" stroke="#1F2937"/>
<line x1="471.845" y1="690.156" x2="479.571" y2="713.932" stroke="#1F2937"/>
<line x1="217.586" y1="31.4391" x2="227.755" y2="54.2777" stroke="#1F2937"/>
<line x1="505.149" y1="677.316" x2="515.317" y2="700.154" stroke="#1F2937"/>
<line x1="151.27" y1="69.606" x2="165.964" y2="89.8314" stroke="#1F2937"/>
<line x1="566.834" y1="641.581" x2="581.529" y2="661.806" stroke="#1F2937"/>
<line x1="121.464" y1="93.6746" x2="138.193" y2="112.253" stroke="#1F2937"/>
<line x1="594.54" y1="619.078" x2="611.268" y2="637.657" stroke="#1F2937"/>
<line x1="94.338" y1="120.727" x2="112.917" y2="137.455" stroke="#1F2937"/>
<line x1="619.742" y1="593.802" x2="638.32" y2="610.531" stroke="#1F2937"/>
<line x1="70.1879" y1="150.466" x2="90.4134" y2="165.161" stroke="#1F2937"/>
<line x1="642.163" y1="566.031" x2="662.388" y2="580.725" stroke="#1F2937"/>
<line x1="31.8398" y1="216.678" x2="54.6785" y2="226.847" stroke="#1F2937"/>
<line x1="677.717" y1="504.241" x2="700.555" y2="514.409" stroke="#1F2937"/>
<line x1="18.0617" y1="252.425" x2="41.8382" y2="260.15" stroke="#1F2937"/>
<line x1="690.459" y1="470.9" x2="714.235" y2="478.625" stroke="#1F2937"/>
<line x1="8.0959" y1="289.416" x2="32.5496" y2="294.614" stroke="#1F2937"/>
<line x1="699.646" y1="436.41" x2="724.1" y2="441.607" stroke="#1F2937"/>
<line x1="2.05129" y1="327.246" x2="26.9143" y2="329.859" stroke="#1F2937"/>
<line x1="705.178" y1="401.148" x2="730.041" y2="403.761" stroke="#1F2937"/>
<line x1="1.94676" y1="403.761" x2="26.8098" y2="401.148" stroke="#1F2937"/>
<line x1="705.074" y1="329.86" x2="729.937" y2="327.246" stroke="#1F2937"/>
<line x1="7.88799" y1="441.608" x2="32.3417" y2="436.41" stroke="#1F2937"/>
<line x1="699.439" y1="294.614" x2="723.892" y2="289.416" stroke="#1F2937"/>
<line x1="17.7527" y1="478.626" x2="41.5291" y2="470.901" stroke="#1F2937"/>
<line x1="690.15" y1="260.151" x2="713.926" y2="252.426" stroke="#1F2937"/>
<line x1="31.4329" y1="514.41" x2="54.2715" y2="504.242" stroke="#1F2937"/>
<line x1="677.31" y1="226.847" x2="700.148" y2="216.679" stroke="#1F2937"/>
<line x1="69.5999" y1="580.727" x2="89.8253" y2="566.032" stroke="#1F2937"/>
<line x1="641.575" y1="165.162" x2="661.8" y2="150.468" stroke="#1F2937"/>
<line x1="93.6686" y1="610.532" x2="112.247" y2="593.804" stroke="#1F2937"/>
<line x1="619.072" y1="137.457" x2="637.651" y2="120.728" stroke="#1F2937"/>
<line x1="120.721" y1="637.658" x2="137.449" y2="619.08" stroke="#1F2937"/>
<line x1="593.796" y1="112.255" x2="610.525" y2="93.6763" stroke="#1F2937"/>
<line x1="150.46" y1="661.808" x2="165.155" y2="641.583" stroke="#1F2937"/>
<line x1="566.025" y1="89.8332" x2="580.719" y2="69.6078" stroke="#1F2937"/>
<line x1="216.672" y1="700.157" x2="226.841" y2="677.318" stroke="#1F2937"/>
<line x1="504.235" y1="54.2797" x2="514.404" y2="31.441" stroke="#1F2937"/>
<line x1="252.419" y1="713.934" x2="260.144" y2="690.158" stroke="#1F2937"/>
<line x1="470.894" y1="41.5373" x2="478.62" y2="17.7609" stroke="#1F2937"/>
<line x1="289.41" y1="723.9" x2="294.608" y2="699.447" stroke="#1F2937"/>
<line x1="436.404" y1="32.3499" x2="441.601" y2="7.89616" stroke="#1F2937"/>
<line x1="327.24" y1="729.945" x2="329.853" y2="705.082" stroke="#1F2937"/>
<line x1="401.142" y1="26.818" x2="403.755" y2="1.9549" stroke="#1F2937"/>
<line x1="50" y1="366.495" x2="-4.37114e-08" y2="366.495" stroke="#1F2937"/>
<line x1="639.414" y1="207.562" x2="682.715" y2="182.562" stroke="#1F2937"/>
<line x1="48.7847" y1="548.562" x2="92.0859" y2="523.562" stroke="#1F2937"/>
<line x1="523.567" y1="92.081" x2="548.567" y2="48.7797" stroke="#1F2937"/>
<line x1="182.567" y1="682.71" x2="207.567" y2="639.409" stroke="#1F2937"/>
<line x1="207.567" y1="92.5809" x2="182.567" y2="49.2796" stroke="#1F2937"/>
<line x1="548.567" y1="683.21" x2="523.567" y2="639.909" stroke="#1F2937"/>
<line x1="92.0859" y1="208.428" x2="48.7847" y2="183.428" stroke="#1F2937"/>
<line x1="682.715" y1="549.428" x2="639.414" y2="524.428" stroke="#1F2937"/>
</svg>
