<svg width="1130" height="226" viewBox="0 0 1130 226" fill="none" xmlns="http://www.w3.org/2000/svg">
<path d="M31.6364 97.4545C25.0909 97.4545 19.4545 95.9091 14.7273 92.8182C10 89.7273 6.36364 85.4697 3.81818 80.0455C1.27273 74.6212 -9.53674e-07 68.4242 -9.53674e-07 61.4545C-9.53674e-07 54.3636 1.30303 48.1061 3.90909 42.6818C6.54545 37.2273 10.2121 32.9697 14.9091 29.9091C19.6364 26.8182 25.1515 25.2727 31.4545 25.2727C36.3636 25.2727 40.7879 26.1818 44.7273 28C48.6667 29.8182 51.8939 32.3636 54.4091 35.6364C56.9242 38.9091 58.4848 42.7273 59.0909 47.0909H48.3636C47.5455 43.9091 45.7273 41.0909 42.9091 38.6364C40.1212 36.1515 36.3636 34.9091 31.6364 34.9091C27.4545 34.9091 23.7879 36 20.6364 38.1818C17.5152 40.3333 15.0758 43.3788 13.3182 47.3182C11.5909 51.2273 10.7273 55.8182 10.7273 61.0909C10.7273 66.4848 11.5758 71.1818 13.2727 75.1818C15 79.1818 17.4242 82.2879 20.5455 84.5C23.697 86.7121 27.3939 87.8182 31.6364 87.8182C34.4242 87.8182 36.9545 87.3333 39.2273 86.3636C41.5 85.3939 43.4242 84 45 82.1818C46.5758 80.3636 47.697 78.1818 48.3636 75.6364H59.0909C58.4848 79.7576 56.9848 83.4697 54.5909 86.7727C52.2273 90.0455 49.0909 92.6515 45.1818 94.5909C41.303 96.5 36.7879 97.4545 31.6364 97.4545ZM68.3727 96V26.1818H78.7364V36.7273H79.4636C80.7364 33.2727 83.0394 30.4697 86.3727 28.3182C89.7061 26.1667 93.4636 25.0909 97.6455 25.0909C98.4333 25.0909 99.4182 25.1061 100.6 25.1364C101.782 25.1667 102.676 25.2121 103.282 25.2727V36.1818C102.918 36.0909 102.085 35.9545 100.782 35.7727C99.5091 35.5606 98.1606 35.4545 96.7364 35.4545C93.3424 35.4545 90.3121 36.1667 87.6455 37.5909C85.0091 38.9848 82.9182 40.9242 81.3727 43.4091C79.8576 45.8636 79.1 48.6667 79.1 51.8182V96H68.3727ZM136.745 97.4545C130.018 97.4545 124.215 95.9697 119.336 93C114.488 90 110.745 85.8182 108.109 80.4545C105.503 75.0606 104.2 68.7879 104.2 61.6364C104.2 54.4848 105.503 48.1818 108.109 42.7273C110.745 37.2424 114.412 32.9697 119.109 29.9091C123.836 26.8182 129.352 25.2727 135.655 25.2727C139.291 25.2727 142.882 25.8788 146.427 27.0909C149.973 28.303 153.2 30.2727 156.109 33C159.018 35.697 161.336 39.2727 163.064 43.7273C164.791 48.1818 165.655 53.6667 165.655 60.1818V64.7273H111.836V55.4545H154.745C154.745 51.5151 153.958 48 152.382 44.9091C150.836 41.8182 148.624 39.3788 145.745 37.5909C142.897 35.803 139.533 34.9091 135.655 34.9091C131.382 34.9091 127.685 35.9697 124.564 38.0909C121.473 40.1818 119.094 42.9091 117.427 46.2727C115.761 49.6364 114.927 53.2424 114.927 57.0909V63.2727C114.927 68.5455 115.836 73.0152 117.655 76.6818C119.503 80.3182 122.064 83.0909 125.336 85C128.609 86.8788 132.412 87.8182 136.745 87.8182C139.564 87.8182 142.109 87.4242 144.382 86.6364C146.685 85.8182 148.67 84.6061 150.336 83C152.003 81.3636 153.291 79.3333 154.2 76.9091L164.564 79.8182C163.473 83.3333 161.639 86.4242 159.064 89.0909C156.488 91.7273 153.306 93.7879 149.518 95.2727C145.73 96.7273 141.473 97.4545 136.745 97.4545ZM196.118 97.6364C191.694 97.6364 187.679 96.803 184.073 95.1364C180.467 93.4394 177.603 91 175.482 87.8182C173.361 84.6061 172.3 80.7273 172.3 76.1818C172.3 72.1818 173.088 68.9394 174.664 66.4545C176.239 63.9394 178.345 61.9697 180.982 60.5455C183.618 59.1212 186.527 58.0606 189.709 57.3636C192.921 56.6364 196.148 56.0606 199.391 55.6364C203.633 55.0909 207.073 54.6818 209.709 54.4091C212.376 54.1061 214.315 53.6061 215.527 52.9091C216.77 52.2121 217.391 51 217.391 49.2727V48.9091C217.391 44.4242 216.164 40.9394 213.709 38.4545C211.285 35.9697 207.603 34.7273 202.664 34.7273C197.542 34.7273 193.527 35.8485 190.618 38.0909C187.709 40.3333 185.664 42.7273 184.482 45.2727L174.3 41.6364C176.118 37.3939 178.542 34.0909 181.573 31.7273C184.633 29.3333 187.967 27.6667 191.573 26.7273C195.209 25.7576 198.785 25.2727 202.3 25.2727C204.542 25.2727 207.118 25.5455 210.027 26.0909C212.967 26.6061 215.8 27.6818 218.527 29.3182C221.285 30.9545 223.573 33.4242 225.391 36.7273C227.209 40.0303 228.118 44.4545 228.118 50V96H217.391V86.5455H216.845C216.118 88.0606 214.906 89.6818 213.209 91.4091C211.512 93.1364 209.255 94.6061 206.436 95.8182C203.618 97.0303 200.179 97.6364 196.118 97.6364ZM197.755 88C201.997 88 205.573 87.1667 208.482 85.5C211.421 83.8333 213.633 81.6818 215.118 79.0455C216.633 76.4091 217.391 73.6364 217.391 70.7273V60.9091C216.936 61.4545 215.936 61.9545 214.391 62.4091C212.876 62.8333 211.118 63.2121 209.118 63.5455C207.148 63.8485 205.224 64.1212 203.345 64.3636C201.497 64.5758 199.997 64.7576 198.845 64.9091C196.058 65.2727 193.452 65.8636 191.027 66.6818C188.633 67.4697 186.694 68.6667 185.209 70.2727C183.755 71.8485 183.027 74 183.027 76.7273C183.027 80.4545 184.406 83.2727 187.164 85.1818C189.952 87.0606 193.482 88 197.755 88ZM271.661 26.1818V35.2727H235.48V26.1818H271.661ZM246.025 9.45454H256.752V76C256.752 79.0303 257.192 81.303 258.07 82.8182C258.98 84.303 260.131 85.303 261.525 85.8182C262.949 86.303 264.449 86.5455 266.025 86.5455C267.207 86.5455 268.177 86.4848 268.934 86.3636C269.692 86.2121 270.298 86.0909 270.752 86L272.934 95.6364C272.207 95.9091 271.192 96.1818 269.889 96.4545C268.586 96.7576 266.934 96.9091 264.934 96.9091C261.904 96.9091 258.934 96.2576 256.025 94.9545C253.146 93.6515 250.752 91.6667 248.843 89C246.964 86.3333 246.025 82.9697 246.025 78.9091V9.45454ZM281.398 96V26.1818H292.125V96H281.398ZM286.852 14.5455C284.761 14.5455 282.958 13.8333 281.443 12.4091C279.958 10.9848 279.216 9.27273 279.216 7.27273C279.216 5.27273 279.958 3.56061 281.443 2.13636C282.958 0.71212 284.761 0 286.852 0C288.943 0 290.731 0.71212 292.216 2.13636C293.731 3.56061 294.489 5.27273 294.489 7.27273C294.489 9.27273 293.731 10.9848 292.216 12.4091C290.731 13.8333 288.943 14.5455 286.852 14.5455ZM316.1 54V96H305.373V26.1818H315.736V37.0909H316.645C318.282 33.5455 320.767 30.697 324.1 28.5455C327.433 26.3636 331.736 25.2727 337.009 25.2727C341.736 25.2727 345.873 26.2424 349.418 28.1818C352.964 30.0909 355.721 33 357.691 36.9091C359.661 40.7879 360.645 45.697 360.645 51.6364V96H349.918V52.3636C349.918 46.8788 348.494 42.6061 345.645 39.5455C342.797 36.4545 338.888 34.9091 333.918 34.9091C330.494 34.9091 327.433 35.6515 324.736 37.1364C322.07 38.6212 319.964 40.7879 318.418 43.6364C316.873 46.4848 316.1 49.9394 316.1 54ZM402.03 123.636C396.848 123.636 392.393 122.97 388.666 121.636C384.939 120.333 381.833 118.606 379.348 116.455C376.893 114.333 374.939 112.061 373.484 109.636L382.03 103.636C382.999 104.909 384.227 106.364 385.711 108C387.196 109.667 389.227 111.106 391.802 112.318C394.408 113.561 397.817 114.182 402.03 114.182C407.666 114.182 412.317 112.818 415.984 110.091C419.651 107.364 421.484 103.091 421.484 97.2727V83.0909H420.575C419.787 84.3636 418.666 85.9394 417.211 87.8182C415.787 89.6667 413.727 91.3182 411.03 92.7727C408.363 94.197 404.757 94.9091 400.211 94.9091C394.575 94.9091 389.514 93.5758 385.03 90.9091C380.575 88.2424 377.045 84.3636 374.439 79.2727C371.863 74.1818 370.575 68 370.575 60.7273C370.575 53.5758 371.833 47.3485 374.348 42.0455C376.863 36.7121 380.363 32.5909 384.848 29.6818C389.333 26.7424 394.514 25.2727 400.393 25.2727C404.939 25.2727 408.545 26.0303 411.211 27.5455C413.908 29.0303 415.969 30.7273 417.393 32.6364C418.848 34.5151 419.969 36.0606 420.757 37.2727H421.848V26.1818H432.211V98C432.211 104 430.848 108.879 428.12 112.636C425.423 116.424 421.787 119.197 417.211 120.955C412.666 122.742 407.605 123.636 402.03 123.636ZM401.666 85.2727C405.969 85.2727 409.605 84.2879 412.575 82.3182C415.545 80.3485 417.802 77.5152 419.348 73.8182C420.893 70.1212 421.666 65.697 421.666 60.5455C421.666 55.5152 420.908 51.0758 419.393 47.2273C417.878 43.3788 415.636 40.3636 412.666 38.1818C409.696 36 406.03 34.9091 401.666 34.9091C397.12 34.9091 393.333 36.0606 390.302 38.3636C387.302 40.6667 385.045 43.7576 383.53 47.6364C382.045 51.5152 381.302 55.8182 381.302 60.5455C381.302 65.3939 382.06 69.6818 383.575 73.4091C385.12 77.1061 387.393 80.0152 390.393 82.1364C393.423 84.2273 397.181 85.2727 401.666 85.2727ZM504.32 97.4545C497.593 97.4545 491.79 95.9697 486.911 93C482.063 90 478.32 85.8182 475.684 80.4545C473.078 75.0606 471.775 68.7879 471.775 61.6364C471.775 54.4848 473.078 48.1818 475.684 42.7273C478.32 37.2424 481.987 32.9697 486.684 29.9091C491.411 26.8182 496.927 25.2727 503.23 25.2727C506.866 25.2727 510.457 25.8788 514.002 27.0909C517.548 28.303 520.775 30.2727 523.684 33C526.593 35.697 528.911 39.2727 530.639 43.7273C532.366 48.1818 533.23 53.6667 533.23 60.1818V64.7273H479.411V55.4545H522.32C522.32 51.5151 521.533 48 519.957 44.9091C518.411 41.8182 516.199 39.3788 513.32 37.5909C510.472 35.803 507.108 34.9091 503.23 34.9091C498.957 34.9091 495.26 35.9697 492.139 38.0909C489.048 40.1818 486.669 42.9091 485.002 46.2727C483.336 49.6364 482.502 53.2424 482.502 57.0909V63.2727C482.502 68.5455 483.411 73.0152 485.23 76.6818C487.078 80.3182 489.639 83.0909 492.911 85C496.184 86.8788 499.987 87.8182 504.32 87.8182C507.139 87.8182 509.684 87.4242 511.957 86.6364C514.26 85.8182 516.245 84.6061 517.911 83C519.578 81.3636 520.866 79.3333 521.775 76.9091L532.139 79.8182C531.048 83.3333 529.214 86.4242 526.639 89.0909C524.063 91.7273 520.881 93.7879 517.093 95.2727C513.305 96.7273 509.048 97.4545 504.32 97.4545ZM549.273 26.1818L566 54.7273L582.727 26.1818H595.091L572.545 61.0909L595.091 96H582.727L566 68.9091L549.273 96H536.909L559.091 61.0909L536.909 26.1818H549.273ZM603.998 122.182V26.1818H614.361V37.2727H615.634C616.422 36.0606 617.513 34.5151 618.907 32.6364C620.331 30.7273 622.361 29.0303 624.998 27.5455C627.664 26.0303 631.27 25.2727 635.816 25.2727C641.695 25.2727 646.876 26.7424 651.361 29.6818C655.846 32.6212 659.346 36.7879 661.861 42.1818C664.376 47.5758 665.634 53.9394 665.634 61.2727C665.634 68.6667 664.376 75.0758 661.861 80.5C659.346 85.8939 655.861 90.0758 651.407 93.0455C646.952 95.9848 641.816 97.4545 635.998 97.4545C631.513 97.4545 627.922 96.7121 625.225 95.2273C622.528 93.7121 620.452 92 618.998 90.0909C617.543 88.1515 616.422 86.5455 615.634 85.2727H614.725V122.182H603.998ZM614.543 61.0909C614.543 66.3636 615.316 71.0152 616.861 75.0455C618.407 79.0455 620.664 82.1818 623.634 84.4545C626.604 86.697 630.24 87.8182 634.543 87.8182C639.028 87.8182 642.77 86.6364 645.77 84.2727C648.801 81.8788 651.073 78.6667 652.589 74.6364C654.134 70.5758 654.907 66.0606 654.907 61.0909C654.907 56.1818 654.149 51.7576 652.634 47.8182C651.149 43.8485 648.892 40.7121 645.861 38.4091C642.861 36.0758 639.089 34.9091 634.543 34.9091C630.18 34.9091 626.513 36.0151 623.543 38.2273C620.573 40.4091 618.331 43.4697 616.816 47.4091C615.301 51.3182 614.543 55.8788 614.543 61.0909ZM704.87 97.4545C698.143 97.4545 692.34 95.9697 687.461 93C682.613 90 678.87 85.8182 676.234 80.4545C673.628 75.0606 672.325 68.7879 672.325 61.6364C672.325 54.4848 673.628 48.1818 676.234 42.7273C678.87 37.2424 682.537 32.9697 687.234 29.9091C691.961 26.8182 697.477 25.2727 703.78 25.2727C707.416 25.2727 711.007 25.8788 714.552 27.0909C718.098 28.303 721.325 30.2727 724.234 33C727.143 35.697 729.461 39.2727 731.189 43.7273C732.916 48.1818 733.78 53.6667 733.78 60.1818V64.7273H679.961V55.4545H722.87C722.87 51.5151 722.083 48 720.507 44.9091C718.961 41.8182 716.749 39.3788 713.87 37.5909C711.022 35.803 707.658 34.9091 703.78 34.9091C699.507 34.9091 695.81 35.9697 692.689 38.0909C689.598 40.1818 687.219 42.9091 685.552 46.2727C683.886 49.6364 683.052 53.2424 683.052 57.0909V63.2727C683.052 68.5455 683.961 73.0152 685.78 76.6818C687.628 80.3182 690.189 83.0909 693.461 85C696.734 86.8788 700.537 87.8182 704.87 87.8182C707.689 87.8182 710.234 87.4242 712.507 86.6364C714.81 85.8182 716.795 84.6061 718.461 83C720.128 81.3636 721.416 79.3333 722.325 76.9091L732.689 79.8182C731.598 83.3333 729.764 86.4242 727.189 89.0909C724.613 91.7273 721.431 93.7879 717.643 95.2727C713.855 96.7273 709.598 97.4545 704.87 97.4545ZM743.698 96V26.1818H754.061V36.7273H754.789C756.061 33.2727 758.364 30.4697 761.698 28.3182C765.031 26.1667 768.789 25.0909 772.97 25.0909C773.758 25.0909 774.743 25.1061 775.925 25.1364C777.107 25.1667 778.001 25.2121 778.607 25.2727V36.1818C778.243 36.0909 777.41 35.9545 776.107 35.7727C774.834 35.5606 773.486 35.4545 772.061 35.4545C768.667 35.4545 765.637 36.1667 762.97 37.5909C760.334 38.9848 758.243 40.9242 756.698 43.4091C755.183 45.8636 754.425 48.6667 754.425 51.8182V96H743.698ZM784.923 96V26.1818H795.65V96H784.923ZM790.377 14.5455C788.286 14.5455 786.483 13.8333 784.968 12.4091C783.483 10.9848 782.741 9.27273 782.741 7.27273C782.741 5.27273 783.483 3.56061 784.968 2.13636C786.483 0.71212 788.286 0 790.377 0C792.468 0 794.256 0.71212 795.741 2.13636C797.256 3.56061 798.014 5.27273 798.014 7.27273C798.014 9.27273 797.256 10.9848 795.741 12.4091C794.256 13.8333 792.468 14.5455 790.377 14.5455ZM838.17 97.4545C831.443 97.4545 825.64 95.9697 820.761 93C815.913 90 812.17 85.8182 809.534 80.4545C806.928 75.0606 805.625 68.7879 805.625 61.6364C805.625 54.4848 806.928 48.1818 809.534 42.7273C812.17 37.2424 815.837 32.9697 820.534 29.9091C825.261 26.8182 830.777 25.2727 837.08 25.2727C840.716 25.2727 844.307 25.8788 847.852 27.0909C851.398 28.303 854.625 30.2727 857.534 33C860.443 35.697 862.761 39.2727 864.489 43.7273C866.216 48.1818 867.08 53.6667 867.08 60.1818V64.7273H813.261V55.4545H856.17C856.17 51.5151 855.383 48 853.807 44.9091C852.261 41.8182 850.049 39.3788 847.17 37.5909C844.322 35.803 840.958 34.9091 837.08 34.9091C832.807 34.9091 829.11 35.9697 825.989 38.0909C822.898 40.1818 820.519 42.9091 818.852 46.2727C817.186 49.6364 816.352 53.2424 816.352 57.0909V63.2727C816.352 68.5455 817.261 73.0152 819.08 76.6818C820.928 80.3182 823.489 83.0909 826.761 85C830.034 86.8788 833.837 87.8182 838.17 87.8182C840.989 87.8182 843.534 87.4242 845.807 86.6364C848.11 85.8182 850.095 84.6061 851.761 83C853.428 81.3636 854.716 79.3333 855.625 76.9091L865.989 79.8182C864.898 83.3333 863.064 86.4242 860.489 89.0909C857.913 91.7273 854.731 93.7879 850.943 95.2727C847.155 96.7273 842.898 97.4545 838.17 97.4545ZM887.725 54V96H876.998V26.1818H887.361V37.0909H888.27C889.907 33.5455 892.392 30.697 895.725 28.5455C899.058 26.3636 903.361 25.2727 908.634 25.2727C913.361 25.2727 917.498 26.2424 921.043 28.1818C924.589 30.0909 927.346 33 929.316 36.9091C931.286 40.7879 932.27 45.697 932.27 51.6364V96H921.543V52.3636C921.543 46.8788 920.119 42.6061 917.27 39.5455C914.422 36.4545 910.513 34.9091 905.543 34.9091C902.119 34.9091 899.058 35.6515 896.361 37.1364C893.695 38.6212 891.589 40.7879 890.043 43.6364C888.498 46.4848 887.725 49.9394 887.725 54ZM973.836 97.4545C967.291 97.4545 961.655 95.9091 956.927 92.8182C952.2 89.7273 948.564 85.4697 946.018 80.0455C943.473 74.6212 942.2 68.4242 942.2 61.4545C942.2 54.3636 943.503 48.1061 946.109 42.6818C948.745 37.2273 952.412 32.9697 957.109 29.9091C961.836 26.8182 967.352 25.2727 973.655 25.2727C978.564 25.2727 982.988 26.1818 986.927 28C990.867 29.8182 994.094 32.3636 996.609 35.6364C999.124 38.9091 1000.68 42.7273 1001.29 47.0909H990.564C989.745 43.9091 987.927 41.0909 985.109 38.6364C982.321 36.1515 978.564 34.9091 973.836 34.9091C969.655 34.9091 965.988 36 962.836 38.1818C959.715 40.3333 957.276 43.3788 955.518 47.3182C953.791 51.2273 952.927 55.8182 952.927 61.0909C952.927 66.4848 953.776 71.1818 955.473 75.1818C957.2 79.1818 959.624 82.2879 962.745 84.5C965.897 86.7121 969.594 87.8182 973.836 87.8182C976.624 87.8182 979.155 87.3333 981.427 86.3636C983.7 85.3939 985.624 84 987.2 82.1818C988.776 80.3636 989.897 78.1818 990.564 75.6364H1001.29C1000.68 79.7576 999.185 83.4697 996.791 86.7727C994.427 90.0455 991.291 92.6515 987.382 94.5909C983.503 96.5 978.988 97.4545 973.836 97.4545ZM1039.85 97.4545C1033.12 97.4545 1027.32 95.9697 1022.44 93C1017.59 90 1013.85 85.8182 1011.21 80.4545C1008.6 75.0606 1007.3 68.7879 1007.3 61.6364C1007.3 54.4848 1008.6 48.1818 1011.21 42.7273C1013.85 37.2424 1017.51 32.9697 1022.21 29.9091C1026.94 26.8182 1032.45 25.2727 1038.75 25.2727C1042.39 25.2727 1045.98 25.8788 1049.53 27.0909C1053.07 28.303 1056.3 30.2727 1059.21 33C1062.12 35.697 1064.44 39.2727 1066.16 43.7273C1067.89 48.1818 1068.75 53.6667 1068.75 60.1818V64.7273H1014.94V55.4545H1057.85C1057.85 51.5151 1057.06 48 1055.48 44.9091C1053.94 41.8182 1051.72 39.3788 1048.85 37.5909C1046 35.803 1042.63 34.9091 1038.75 34.9091C1034.48 34.9091 1030.78 35.9697 1027.66 38.0909C1024.57 40.1818 1022.19 42.9091 1020.53 46.2727C1018.86 49.6364 1018.03 53.2424 1018.03 57.0909V63.2727C1018.03 68.5455 1018.94 73.0152 1020.75 76.6818C1022.6 80.3182 1025.16 83.0909 1028.44 85C1031.71 86.8788 1035.51 87.8182 1039.85 87.8182C1042.66 87.8182 1045.21 87.4242 1047.48 86.6364C1049.78 85.8182 1051.77 84.6061 1053.44 83C1055.1 81.3636 1056.39 79.3333 1057.3 76.9091L1067.66 79.8182C1066.57 83.3333 1064.74 86.4242 1062.16 89.0909C1059.59 91.7273 1056.41 93.7879 1052.62 95.2727C1048.83 96.7273 1044.57 97.4545 1039.85 97.4545ZM1128.13 41.8182L1118.49 44.5455C1117.88 42.9394 1116.99 41.3788 1115.81 39.8636C1114.66 38.3182 1113.08 37.0455 1111.08 36.0455C1109.08 35.0455 1106.52 34.5455 1103.4 34.5455C1099.13 34.5455 1095.57 35.5303 1092.72 37.5C1089.9 39.4394 1088.49 41.9091 1088.49 44.9091C1088.49 47.5758 1089.46 49.6818 1091.4 51.2273C1093.34 52.7727 1096.37 54.0606 1100.49 55.0909L1110.85 57.6364C1117.1 59.1515 1121.75 61.4697 1124.81 64.5909C1127.87 67.6818 1129.4 71.6667 1129.4 76.5455C1129.4 80.5455 1128.25 84.1212 1125.95 87.2727C1123.67 90.4242 1120.49 92.9091 1116.4 94.7273C1112.31 96.5455 1107.55 97.4545 1102.13 97.4545C1095.01 97.4545 1089.11 95.9091 1084.45 92.8182C1079.78 89.7273 1076.82 85.2121 1075.58 79.2727L1085.76 76.7273C1086.73 80.4848 1088.57 83.303 1091.26 85.1818C1093.99 87.0606 1097.55 88 1101.95 88C1106.95 88 1110.92 86.9394 1113.85 84.8182C1116.82 82.6667 1118.31 80.0909 1118.31 77.0909C1118.31 74.6667 1117.46 72.6364 1115.76 71C1114.07 69.3333 1111.46 68.0909 1107.95 67.2727L1096.31 64.5455C1089.92 63.0303 1085.22 60.6818 1082.22 57.5C1079.25 54.2879 1077.76 50.2727 1077.76 45.4545C1077.76 41.5151 1078.87 38.0303 1081.08 35C1083.32 31.9697 1086.37 29.5909 1090.22 27.8636C1094.1 26.1364 1098.49 25.2727 1103.4 25.2727C1110.31 25.2727 1115.73 26.7879 1119.67 29.8182C1123.64 32.8485 1126.46 36.8485 1128.13 41.8182ZM47.2727 195.455V154.182H58V224H47.2727V212.182H46.5455C44.9091 215.727 42.3636 218.742 38.9091 221.227C35.4545 223.682 31.0909 224.909 25.8182 224.909C21.4545 224.909 17.5758 223.955 14.1818 222.045C10.7879 220.106 8.12121 217.197 6.18182 213.318C4.24242 209.409 3.27273 204.485 3.27273 198.545V154.182H14V197.818C14 202.909 15.4242 206.97 18.2727 210C21.1515 213.03 24.8182 214.545 29.2727 214.545C31.9394 214.545 34.6515 213.864 37.4091 212.5C40.197 211.136 42.5303 209.045 44.4091 206.227C46.3182 203.409 47.2727 199.818 47.2727 195.455ZM120.702 169.818L111.066 172.545C110.46 170.939 109.566 169.379 108.384 167.864C107.233 166.318 105.657 165.045 103.657 164.045C101.657 163.045 99.0962 162.545 95.975 162.545C91.7023 162.545 88.1417 163.53 85.2932 165.5C82.475 167.439 81.0659 169.909 81.0659 172.909C81.0659 175.576 82.0356 177.682 83.975 179.227C85.9144 180.773 88.9447 182.061 93.0659 183.091L103.43 185.636C109.672 187.152 114.323 189.47 117.384 192.591C120.445 195.682 121.975 199.667 121.975 204.545C121.975 208.545 120.823 212.121 118.52 215.273C116.248 218.424 113.066 220.909 108.975 222.727C104.884 224.545 100.127 225.455 94.7023 225.455C87.5811 225.455 81.6871 223.909 77.0205 220.818C72.3538 217.727 69.3992 213.212 68.1568 207.273L78.3386 204.727C79.3083 208.485 81.1417 211.303 83.8386 213.182C86.5659 215.061 90.1265 216 94.5205 216C99.5205 216 103.49 214.939 106.43 212.818C109.399 210.667 110.884 208.091 110.884 205.091C110.884 202.667 110.036 200.636 108.339 199C106.642 197.333 104.036 196.091 100.52 195.273L88.8841 192.545C82.4901 191.03 77.7932 188.682 74.7932 185.5C71.8235 182.288 70.3386 178.273 70.3386 173.455C70.3386 169.515 71.4447 166.03 73.6568 163C75.8992 159.97 78.9447 157.591 82.7932 155.864C86.672 154.136 91.0659 153.273 95.975 153.273C102.884 153.273 108.308 154.788 112.248 157.818C116.217 160.848 119.036 164.848 120.702 169.818ZM160.995 225.455C154.268 225.455 148.465 223.97 143.586 221C138.738 218 134.995 213.818 132.359 208.455C129.753 203.061 128.45 196.788 128.45 189.636C128.45 182.485 129.753 176.182 132.359 170.727C134.995 165.242 138.662 160.97 143.359 157.909C148.086 154.818 153.602 153.273 159.905 153.273C163.541 153.273 167.132 153.879 170.677 155.091C174.223 156.303 177.45 158.273 180.359 161C183.268 163.697 185.586 167.273 187.314 171.727C189.041 176.182 189.905 181.667 189.905 188.182V192.727H136.086V183.455H178.995C178.995 179.515 178.208 176 176.632 172.909C175.086 169.818 172.874 167.379 169.995 165.591C167.147 163.803 163.783 162.909 159.905 162.909C155.632 162.909 151.935 163.97 148.814 166.091C145.723 168.182 143.344 170.909 141.677 174.273C140.011 177.636 139.177 181.242 139.177 185.091V191.273C139.177 196.545 140.086 201.015 141.905 204.682C143.753 208.318 146.314 211.091 149.586 213C152.859 214.879 156.662 215.818 160.995 215.818C163.814 215.818 166.359 215.424 168.632 214.636C170.935 213.818 172.92 212.606 174.586 211C176.253 209.364 177.541 207.333 178.45 204.909L188.814 207.818C187.723 211.333 185.889 214.424 183.314 217.091C180.738 219.727 177.556 221.788 173.768 223.273C169.98 224.727 165.723 225.455 160.995 225.455ZM199.823 224V154.182H210.186V164.727H210.914C212.186 161.273 214.489 158.47 217.823 156.318C221.156 154.167 224.914 153.091 229.095 153.091C229.883 153.091 230.868 153.106 232.05 153.136C233.232 153.167 234.126 153.212 234.732 153.273V164.182C234.368 164.091 233.535 163.955 232.232 163.773C230.959 163.561 229.611 163.455 228.186 163.455C224.792 163.455 221.762 164.167 219.095 165.591C216.459 166.985 214.368 168.924 212.823 171.409C211.308 173.864 210.55 176.667 210.55 179.818V224H199.823ZM290.502 169.818L280.866 172.545C280.26 170.939 279.366 169.379 278.184 167.864C277.033 166.318 275.457 165.045 273.457 164.045C271.457 163.045 268.896 162.545 265.775 162.545C261.502 162.545 257.942 163.53 255.093 165.5C252.275 167.439 250.866 169.909 250.866 172.909C250.866 175.576 251.836 177.682 253.775 179.227C255.714 180.773 258.745 182.061 262.866 183.091L273.23 185.636C279.472 187.152 284.123 189.47 287.184 192.591C290.245 195.682 291.775 199.667 291.775 204.545C291.775 208.545 290.623 212.121 288.32 215.273C286.048 218.424 282.866 220.909 278.775 222.727C274.684 224.545 269.927 225.455 264.502 225.455C257.381 225.455 251.487 223.909 246.82 220.818C242.154 217.727 239.199 213.212 237.957 207.273L248.139 204.727C249.108 208.485 250.942 211.303 253.639 213.182C256.366 215.061 259.927 216 264.32 216C269.32 216 273.29 214.939 276.23 212.818C279.199 210.667 280.684 208.091 280.684 205.091C280.684 202.667 279.836 200.636 278.139 199C276.442 197.333 273.836 196.091 270.32 195.273L258.684 192.545C252.29 191.03 247.593 188.682 244.593 185.5C241.623 182.288 240.139 178.273 240.139 173.455C240.139 169.515 241.245 166.03 243.457 163C245.699 159.97 248.745 157.591 252.593 155.864C256.472 154.136 260.866 153.273 265.775 153.273C272.684 153.273 278.108 154.788 282.048 157.818C286.017 160.848 288.836 164.848 290.502 169.818ZM341.85 130.909V224H331.123V130.909H341.85ZM383.461 225.455C377.158 225.455 371.628 223.955 366.87 220.955C362.143 217.955 358.446 213.758 355.78 208.364C353.143 202.97 351.825 196.667 351.825 189.455C351.825 182.182 353.143 175.833 355.78 170.409C358.446 164.985 362.143 160.773 366.87 157.773C371.628 154.773 377.158 153.273 383.461 153.273C389.764 153.273 395.28 154.773 400.007 157.773C404.764 160.773 408.461 164.985 411.098 170.409C413.764 175.833 415.098 182.182 415.098 189.455C415.098 196.667 413.764 202.97 411.098 208.364C408.461 213.758 404.764 217.955 400.007 220.955C395.28 223.955 389.764 225.455 383.461 225.455ZM383.461 215.818C388.249 215.818 392.189 214.591 395.28 212.136C398.37 209.682 400.658 206.455 402.143 202.455C403.628 198.455 404.37 194.121 404.37 189.455C404.37 184.788 403.628 180.439 402.143 176.409C400.658 172.379 398.37 169.121 395.28 166.636C392.189 164.152 388.249 162.909 383.461 162.909C378.673 162.909 374.734 164.152 371.643 166.636C368.552 169.121 366.264 172.379 364.78 176.409C363.295 180.439 362.552 184.788 362.552 189.455C362.552 194.121 363.295 198.455 364.78 202.455C366.264 206.455 368.552 209.682 371.643 212.136C374.734 214.591 378.673 215.818 383.461 215.818ZM479.664 154.182L453.845 224H442.936L417.118 154.182H428.755L448.027 209.818H448.755L468.027 154.182H479.664ZM514.195 225.455C507.468 225.455 501.665 223.97 496.786 221C491.938 218 488.195 213.818 485.559 208.455C482.953 203.061 481.65 196.788 481.65 189.636C481.65 182.485 482.953 176.182 485.559 170.727C488.195 165.242 491.862 160.97 496.559 157.909C501.286 154.818 506.802 153.273 513.105 153.273C516.741 153.273 520.332 153.879 523.877 155.091C527.423 156.303 530.65 158.273 533.559 161C536.468 163.697 538.786 167.273 540.514 171.727C542.241 176.182 543.105 181.667 543.105 188.182V192.727H489.286V183.455H532.195C532.195 179.515 531.408 176 529.832 172.909C528.286 169.818 526.074 167.379 523.195 165.591C520.347 163.803 516.983 162.909 513.105 162.909C508.832 162.909 505.135 163.97 502.014 166.091C498.923 168.182 496.544 170.909 494.877 174.273C493.211 177.636 492.377 181.242 492.377 185.091V191.273C492.377 196.545 493.286 201.015 495.105 204.682C496.953 208.318 499.514 211.091 502.786 213C506.059 214.879 509.862 215.818 514.195 215.818C517.014 215.818 519.559 215.424 521.832 214.636C524.135 213.818 526.12 212.606 527.786 211C529.453 209.364 530.741 207.333 531.65 204.909L542.014 207.818C540.923 211.333 539.089 214.424 536.514 217.091C533.938 219.727 530.756 221.788 526.968 223.273C523.18 224.727 518.923 225.455 514.195 225.455Z" fill="white"/>
</svg>
