<svg width="100%" height="100%" viewBox="0 0 18 20" fill="none" preserveAspectRatio="xMidYMid meet" xmlns="http://www.w3.org/2000/svg">
<path d="M11.9998 0.900079C11.9998 0.781879 11.9765 0.664836 11.9313 0.555634C11.886 0.446431 11.8197 0.347207 11.7362 0.263627C11.6526 0.180047 11.5534 0.113748 11.4442 0.0685144C11.335 0.0232812 11.2179 0 11.0997 0H0.900079C0.661363 0 0.432425 0.0948295 0.263627 0.263627C0.0948295 0.432425 0 0.661363 0 0.900079V5.10045C0 5.21865 0.0232812 5.33569 0.0685144 5.44489C0.113748 5.5541 0.180047 5.65332 0.263627 5.7369C0.347207 5.82048 0.446431 5.88678 0.555634 5.93201C0.664836 5.97725 0.781879 6.00053 0.900079 6.00053H11.1C11.3387 6.00053 11.5677 6.09536 11.7365 6.26415C11.9053 6.43295 12.0001 6.66189 12.0001 6.90061V8.10039C12.0001 8.33911 11.9053 8.56805 11.7365 8.73685C11.5677 8.90564 11.3387 9.00047 11.1 9.00047H4.50008C4.26136 9.00047 4.03242 9.0953 3.86363 9.2641C3.69483 9.4329 3.6 9.66184 3.6 9.90055V14.1003C3.6 14.339 3.69483 14.5679 3.86363 14.7367C4.03242 14.9055 4.26136 15.0004 4.50008 15.0004H11.1C11.3387 15.0004 11.5677 15.0952 11.7365 15.264C11.9053 15.4328 12.0001 15.6617 12.0001 15.9004V18.3003C12.0001 18.539 12.0949 18.7679 12.2636 18.9367C12.4323 19.1055 12.6612 19.2003 12.8999 19.2004H17.0999C17.2181 19.2004 17.3352 19.1771 17.4444 19.1319C17.5536 19.0867 17.6528 19.0204 17.7364 18.9368C17.82 18.8532 17.8863 18.754 17.9315 18.6448C17.9767 18.5356 18 18.4185 18 18.3003V14.1C18 13.9818 17.9767 13.8647 17.9315 13.7555C17.8863 13.6463 17.82 13.5471 17.7364 13.4635C17.6528 13.3799 17.5536 13.3136 17.4444 13.2684C17.3352 13.2232 17.2181 13.1999 17.0999 13.1999H12.8999C12.6612 13.1999 12.4322 13.1051 12.2634 12.9363C12.0946 12.7675 11.9998 12.5385 11.9998 12.2998V11.1C11.9998 10.8613 12.0946 10.6324 12.2634 10.4636C12.4322 10.2948 12.6612 10.1999 12.8999 10.1999H17.0999C17.2181 10.1999 17.3352 10.1767 17.4444 10.1314C17.5536 10.0862 17.6528 10.0199 17.7364 9.93632C17.82 9.85274 17.8863 9.75352 17.9315 9.64431C17.9767 9.53511 18 9.41807 18 9.29987V5.10045C18 4.86173 17.9052 4.63279 17.7364 4.464C17.5676 4.2952 17.3386 4.20037 17.0999 4.20037H12.8999C12.6612 4.20037 12.4322 4.10554 12.2634 3.93674C12.0946 3.76794 11.9998 3.53901 11.9998 3.30029V0.900079Z" fill="white"/>
</svg>
